<svg xmlns="http://www.w3.org/2000/svg" xmlns:xlink="http://www.w3.org/1999/xlink"><defs><style>
    .sprite-symbol-usage {display: none;}
    .sprite-symbol-usage:target {display: inline;}
  </style><symbol viewBox="0 0 20 24" id="calendar"><path d="M19.168 21.322c.194-.194.291-.46.291-.798v-9.73H2.18v9.73c0 .338.097.604.292.798.194.194.451.291.772.291h15.153c.32 0 .577-.097.772-.291zM3.243 4.308c-.321 0-.578.1-.772.303-.195.203-.292.465-.292.786V8.64h17.28V5.397c0-.32-.097-.583-.29-.786-.196-.202-.453-.303-.773-.303h-2.18v1.089c0 .32-.097.583-.291.785-.195.203-.452.305-.773.305-.338 0-.604-.102-.798-.305-.195-.202-.291-.464-.291-.785v-1.09H7.576v1.09c0 .32-.097.583-.291.785-.195.203-.46.305-.799.305-.32 0-.578-.102-.772-.305-.195-.202-.291-.464-.291-.785v-1.09h-2.18zm15.153-2.154c.912 0 1.68.313 2.305.938.624.624.938 1.393.938 2.305v15.127c0 .929-.314 1.702-.938 2.318-.625.616-1.393.925-2.305.925H3.243c-.912 0-1.681-.309-2.305-.925C.313 22.226 0 21.452 0 20.524V5.397c0-.912.313-1.68.938-2.305.624-.625 1.393-.938 2.305-.938h2.18v-1.09c0-.32.096-.578.29-.773.195-.194.452-.29.773-.29.338 0 .604.096.799.29.194.195.291.452.291.773v1.09h6.487v-1.09c0-.32.096-.578.29-.773.195-.194.46-.29.8-.29.32 0 .577.096.772.29.194.195.291.452.291.773v1.09h2.18z" mask="url(#c)" /></symbol><symbol viewBox="0 0 24 24" id="chevron-down"><path d="M21.75 0 24 2 12 14 0 2l2.25-2L12 9.72Z" /></symbol><symbol viewBox="0 0 512 512" id="circle-check"><path d="M243.8 339.8c-10.9 10.9-28.7 10.9-39.6 0l-64-64c-10.9-10.9-10.9-28.7 0-39.6 10.9-10.9 28.7-10.9 39.6 0l44.2 44.2 108.2-108.2c10.9-10.9 28.7-10.9 39.6 0 10.9 10.9 10.9 28.7 0 39.6l-128 128zM512 256c0 141.4-114.6 256-256 256S0 397.4 0 256 114.6 0 256 0s256 114.6 256 256zM256 48C141.1 48 48 141.1 48 256s93.1 208 208 208 208-93.1 208-208S370.9 48 256 48z" /></symbol><symbol viewBox="0 0 512 512" id="circle-xmark"><path d="M175 175c9.4-9.3 24.6-9.3 33.1 0l47 47.1L303 175c9.4-9.3 24.6-9.3 33.1 0 10.2 9.4 10.2 24.6 0 33.1l-46.2 47 46.2 47.9c10.2 9.4 10.2 24.6 0 33.1-8.5 10.2-23.7 10.2-33.1 0l-47.9-46.2-47 46.2c-8.5 10.2-23.7 10.2-33.1 0-9.3-8.5-9.3-23.7 0-33.1l47.1-47.9-47.1-47c-9.3-8.5-9.3-23.7 0-33.1zm337 81c0 141.4-114.6 256-256 256S0 397.4 0 256 114.6 0 256 0s256 114.6 256 256zM256 48C141.1 48 48 141.1 48 256s93.1 208 208 208 208-93.1 208-208S370.9 48 256 48z" /></symbol><symbol viewBox="0 0 24 24" id="close"><path d="M21.8 0 24 2 12 14 0 2l2.2-2L12 9.7 21.8 0z" /><path d="m2.2 23.6-2.2-2 12-12 12 12-2.2 2-9.8-9.7-9.8 9.7z" /></symbol><symbol viewBox="0 0 512 512" id="download"><path d="M480 352H346.5l-45.25 45.25C289.2 409.3 273.1 416 256 416s-33.16-6.656-45.25-18.75L165.5 352H32c-17.67 0-32 14.33-32 32v96c0 17.67 14.33 32 32 32h448c17.67 0 32-14.33 32-32v-96c0-17.7-14.3-32-32-32zm-48 104c-13.2 0-24-10.8-24-24s10.8-24 24-24 24 10.8 24 24-10.8 24-24 24zm-198.6-81.4c6.2 6.3 14.4 9.4 22.6 9.4s16.38-3.125 22.62-9.375l128-128c12.49-12.5 12.49-32.75 0-45.25-12.5-12.5-32.76-12.5-45.25 0L288 274.8V32c0-17.67-14.33-32-32-32-17.7 0-32 14.33-32 32v242.8l-73.4-73.4c-12.49-12.5-32.75-12.5-45.25 0-12.49 12.5-12.49 32.75 0 45.25L233.4 374.6z" /></symbol><symbol viewBox="0 0 12 24" id="left"><path d="m4.023 11.68 8.828 8.828c.338.339.508.73.508 1.172 0 .443-.17.834-.508 1.172-.182.156-.385.28-.605.37a1.51 1.51 0 0 1-.567.138c-.156 0-.345-.045-.566-.137a2.22 2.22 0 0 1-.606-.371l-10-10C.17 12.514 0 12.122 0 11.68c0-.442.17-.833.507-1.172l10-10C10.845.17 11.237 0 11.68 0c.443 0 .833.17 1.172.508.338.339.508.73.508 1.172 0 .443-.17.834-.508 1.172L4.023 11.68z" /></symbol><symbol viewBox="0 0 20.02 24" id="location"><g data-name="Layer 2"><g class="cls-2" data-name="Layer 1"><path d="M11.41 11.41a2 2 0 0 0 0-2.83A2 2 0 0 0 8 10a2 2 0 0 0 2 2 1.88 1.88 0 0 0 1.4-.59m1.42-4.24a3.95 3.95 0 0 1 0 5.65 4 4 0 0 1-5.65 0A3.81 3.81 0 0 1 6 10a3.84 3.84 0 0 1 1.18-2.83 4 4 0 0 1 5.65 0m-.76 13a22.33 22.33 0 0 0 2.65-2.73A19.61 19.61 0 0 0 17 13.92 8.45 8.45 0 0 0 18 10a7.77 7.77 0 0 0-.63-3.12 8.29 8.29 0 0 0-1.71-2.54 8 8 0 0 0-2.53-1.72 7.93 7.93 0 0 0-6.24 0 7.93 7.93 0 0 0-2.53 1.73 8.12 8.12 0 0 0-1.71 2.54A7.77 7.77 0 0 0 2 10a8.33 8.33 0 0 0 1 3.91 19.08 19.08 0 0 0 2.3 3.49 21.57 21.57 0 0 0 2.64 2.73c.91.77 1.6 1.32 2.07 1.67.47-.35 1.15-.9 2.06-1.67M13.9.8a9.79 9.79 0 0 1 3.16 2.13 10.22 10.22 0 0 1 2.16 3.19A9.64 9.64 0 0 1 20 10a10.42 10.42 0 0 1-1.43 5.25 24.56 24.56 0 0 1-3.17 4.33 25 25 0 0 1-3.21 3l-1.59 1.2-.32.15A.79.79 0 0 1 10 24a.75.75 0 0 1-.29-.06 2.3 2.3 0 0 1-.32-.15l-1.6-1.2a26.42 26.42 0 0 1-3.21-3 24.52 24.52 0 0 1-3.16-4.33A10.42 10.42 0 0 1 0 10a9.47 9.47 0 0 1 .8-3.88A10.36 10.36 0 0 1 3 2.93 9.83 9.83 0 0 1 6.12.8a9.86 9.86 0 0 1 7.78 0" class="cls-3" /></g></g></symbol><symbol viewBox="0 0 12 24" id="right"><path d="M12.852 10.508c.338.339.508.729.508 1.172 0 .443-.17.834-.508 1.172l-10 10c-.183.156-.358.28-.527.37-.17.093-.385.138-.645.138-.261 0-.475-.045-.644-.137a2.999 2.999 0 0 1-.528-.371C.168 22.514 0 22.122 0 21.68c0-.443.169-.833.508-1.172l8.828-8.828L.508 2.852C.168 2.514 0 2.122 0 1.68 0 1.237.169.847.508.508.846.17 1.237 0 1.68 0c.443 0 .833.17 1.172.508l10 10z" /></symbol><symbol viewBox="0 0 24 24" id="user"><path d="M12 24C5.383 24 0 18.617 0 12S5.383 0 12 0s12 5.383 12 12-5.383 12-12 12zm0-23C5.935 1 1 5.935 1 12s4.935 11 11 11 11-4.935 11-11S18.065 1 12 1z" /><path d="M12 13.5c-2.619 0-4.75-2.131-4.75-4.75S9.381 4 12 4s4.75 2.131 4.75 4.75S14.619 13.5 12 13.5zM12 5C9.932 5 8.25 6.682 8.25 8.75S9.932 12.5 12 12.5s3.75-1.682 3.75-3.75S14.068 5 12 5zM5.683 19a.5.5 0 0 1-.451-.715 7.502 7.502 0 0 1 3.567-3.567 7.413 7.413 0 0 1 3.19-.718 7.53 7.53 0 0 1 6.781 4.286.501.501 0 0 1-.905.428A6.526 6.526 0 0 0 11.989 15c-.96 0-1.89.209-2.763.623a6.506 6.506 0 0 0-3.091 3.091.502.502 0 0 1-.452.286z" /></symbol></defs><use id="calendar-usage" xlink:href="#calendar" class="sprite-symbol-usage" /><use id="chevron-down-usage" xlink:href="#chevron-down" class="sprite-symbol-usage" /><use id="circle-check-usage" xlink:href="#circle-check" class="sprite-symbol-usage" /><use id="circle-xmark-usage" xlink:href="#circle-xmark" class="sprite-symbol-usage" /><use id="close-usage" xlink:href="#close" class="sprite-symbol-usage" /><use id="download-usage" xlink:href="#download" class="sprite-symbol-usage" /><use id="left-usage" xlink:href="#left" class="sprite-symbol-usage" /><use id="location-usage" xlink:href="#location" class="sprite-symbol-usage" /><use id="right-usage" xlink:href="#right" class="sprite-symbol-usage" /><use id="user-usage" xlink:href="#user" class="sprite-symbol-usage" /></svg>