<svg xmlns="http://www.w3.org/2000/svg" xmlns:xlink="http://www.w3.org/1999/xlink"><defs><style>
    .sprite-symbol-usage {display: none;}
    .sprite-symbol-usage:target {display: inline;}
  </style><symbol viewBox="0 0 20 24" id="calendar"><path d="M19.168 21.322c.194-.194.291-.46.291-.798v-9.73H2.18v9.73c0 .338.097.604.292.798.194.194.451.291.772.291h15.153c.32 0 .577-.097.772-.291zM3.243 4.308c-.321 0-.578.1-.772.303-.195.203-.292.465-.292.786V8.64h17.28V5.397c0-.32-.097-.583-.29-.786-.196-.202-.453-.303-.773-.303h-2.18v1.089c0 .32-.097.583-.291.785-.195.203-.452.305-.773.305-.338 0-.604-.102-.798-.305-.195-.202-.291-.464-.291-.785v-1.09H7.576v1.09c0 .32-.097.583-.291.785-.195.203-.46.305-.799.305-.32 0-.578-.102-.772-.305-.195-.202-.291-.464-.291-.785v-1.09h-2.18zm15.153-2.154c.912 0 1.68.313 2.305.938.624.624.938 1.393.938 2.305v15.127c0 .929-.314 1.702-.938 2.318-.625.616-1.393.925-2.305.925H3.243c-.912 0-1.681-.309-2.305-.925C.313 22.226 0 21.452 0 20.524V5.397c0-.912.313-1.68.938-2.305.624-.625 1.393-.938 2.305-.938h2.18v-1.09c0-.32.096-.578.29-.773.195-.194.452-.29.773-.29.338 0 .604.096.799.29.194.195.291.452.291.773v1.09h6.487v-1.09c0-.32.096-.578.29-.773.195-.194.46-.29.8-.29.32 0 .577.096.772.29.194.195.291.452.291.773v1.09h2.18z" mask="url(#c)" /></symbol><symbol viewBox="0 0 24 24" id="chevron-down"><path d="M21.75 0L24 2 12 14 0 2l2.25-2L12 9.72z" /></symbol><symbol viewBox="0 0 24 24" id="close"><path d="M23.5 23.999a.5.5 0 01-.354-.146L12 12.706.854 23.853a.5.5 0 11-.708-.707L11.292 12 .147.853A.5.5 0 01.854.145L12 11.292 23.147.146a.5.5 0 11.708.707L12.707 11.999l11.146 11.146a.5.5 0 01-.353.854z" /></symbol><symbol viewBox="0 0 12 24" id="left"><path d="M4.023 11.68l8.828 8.828c.338.339.508.73.508 1.172 0 .443-.17.834-.508 1.172-.182.156-.385.28-.605.37a1.51 1.51 0 01-.567.138c-.156 0-.345-.045-.566-.137a2.22 2.22 0 01-.606-.371l-10-10C.17 12.514 0 12.122 0 11.68c0-.442.17-.833.507-1.172l10-10C10.845.17 11.237 0 11.68 0c.443 0 .833.17 1.172.508.338.339.508.73.508 1.172 0 .443-.17.834-.508 1.172L4.023 11.68z" /></symbol><symbol viewBox="0 0 16 24" id="location"><path d="M11.414 11.414c.39-.39.586-.86.586-1.406 0-.563-.196-1.039-.586-1.43a1.92 1.92 0 00-1.406-.586c-.548 0-1.016.196-1.406.586a1.944 1.944 0 00-.586 1.43c0 .547.195 1.016.586 1.406.39.39.858.586 1.406.586.546 0 1.015-.195 1.406-.586m1.418-4.242c.789.781 1.184 1.727 1.184 2.836 0 1.093-.395 2.031-1.184 2.812-.79.782-1.73 1.172-2.824 1.172-1.094 0-2.036-.39-2.825-1.172C6.394 12.04 6 11.101 6 10.008c0-1.11.394-2.055 1.183-2.836C7.973 6.391 8.913 6 10.008 6c1.093 0 2.035.39 2.824 1.172m-.762 12.96a22.683 22.683 0 002.649-2.73 19.49 19.49 0 002.297-3.48c.656-1.266.984-2.57.984-3.914 0-1.11-.211-2.148-.633-3.117a8.267 8.267 0 00-1.711-2.543 8.035 8.035 0 00-2.53-1.723 7.837 7.837 0 00-3.118-.633c-1.094 0-2.133.21-3.117.633a8.01 8.01 0 00-2.532 1.723 8.247 8.247 0 00-1.71 2.543 7.704 7.704 0 00-.633 3.117c0 1.344.328 2.648.984 3.914a19.437 19.437 0 002.297 3.48c.875 1.055 1.757 1.966 2.648 2.73.906.767 1.594 1.321 2.063 1.665.469-.344 1.156-.898 2.062-1.664M13.9.797a10.002 10.002 0 013.163 2.132c.906.907 1.625 1.97 2.157 3.188a9.653 9.653 0 01.797 3.89c0 1.844-.477 3.595-1.43 5.25-.954 1.642-2.008 3.087-3.164 4.337-1.157 1.25-2.227 2.25-3.211 3l-1.594 1.195c-.11.062-.215.113-.316.152a.825.825 0 01-.293.06.816.816 0 01-.293-.06 2.38 2.38 0 01-.316-.152l-1.595-1.195c-.984-.75-2.054-1.75-3.21-3-1.157-1.25-2.212-2.695-3.165-4.336C.477 13.602 0 11.85 0 10.008c0-1.375.265-2.672.797-3.89.53-1.22 1.25-2.282 2.156-3.189A9.995 9.995 0 016.117.797C7.336.266 8.632 0 10.007 0S12.68.266 13.9.797" mask="url(#c)" /></symbol><symbol viewBox="0 0 12 24" id="right"><path d="M12.852 10.508c.338.339.508.729.508 1.172 0 .443-.17.834-.508 1.172l-10 10c-.183.156-.358.28-.527.37-.17.093-.385.138-.645.138-.261 0-.475-.045-.644-.137a2.999 2.999 0 01-.528-.371C.168 22.514 0 22.122 0 21.68c0-.443.169-.833.508-1.172l8.828-8.828L.508 2.852C.168 2.514 0 2.122 0 1.68 0 1.237.169.847.508.508.846.17 1.237 0 1.68 0c.443 0 .833.17 1.172.508l10 10z" /></symbol></defs><use id="calendar-usage" xlink:href="#calendar" class="sprite-symbol-usage" /><use id="chevron-down-usage" xlink:href="#chevron-down" class="sprite-symbol-usage" /><use id="close-usage" xlink:href="#close" class="sprite-symbol-usage" /><use id="left-usage" xlink:href="#left" class="sprite-symbol-usage" /><use id="location-usage" xlink:href="#location" class="sprite-symbol-usage" /><use id="right-usage" xlink:href="#right" class="sprite-symbol-usage" /></svg>