<svg xmlns="http://www.w3.org/2000/svg" xmlns:xlink="http://www.w3.org/1999/xlink"><defs><style>
    .sprite-symbol-usage {display: none;}
    .sprite-symbol-usage:target {display: inline;}
  </style><symbol viewBox="0 0 20 24" id="calendar"><path d="M19.168 21.322c.194-.194.291-.46.291-.798v-9.73H2.18v9.73c0 .338.097.604.292.798.194.194.451.291.772.291h15.153c.32 0 .577-.097.772-.291zM3.243 4.308c-.321 0-.578.1-.772.303-.195.203-.292.465-.292.786V8.64h17.28V5.397c0-.32-.097-.583-.29-.786-.196-.202-.453-.303-.773-.303h-2.18v1.089c0 .32-.097.583-.291.785-.195.203-.452.305-.773.305-.338 0-.604-.102-.798-.305-.195-.202-.291-.464-.291-.785v-1.09H7.576v1.09c0 .32-.097.583-.291.785-.195.203-.46.305-.799.305-.32 0-.578-.102-.772-.305-.195-.202-.291-.464-.291-.785v-1.09h-2.18zm15.153-2.154c.912 0 1.68.313 2.305.938.624.624.938 1.393.938 2.305v15.127c0 .929-.314 1.702-.938 2.318-.625.616-1.393.925-2.305.925H3.243c-.912 0-1.681-.309-2.305-.925C.313 22.226 0 21.452 0 20.524V5.397c0-.912.313-1.68.938-2.305.624-.625 1.393-.938 2.305-.938h2.18v-1.09c0-.32.096-.578.29-.773.195-.194.452-.29.773-.29.338 0 .604.096.799.29.194.195.291.452.291.773v1.09h6.487v-1.09c0-.32.096-.578.29-.773.195-.194.46-.29.8-.29.32 0 .577.096.772.29.194.195.291.452.291.773v1.09h2.18z" mask="url(#c)" /></symbol><symbol viewBox="0 0 24 24" id="chevron-down"><path d="M21.75 0L24 2 12 14 0 2l2.25-2L12 9.72z" /></symbol><symbol viewBox="0 0 24 24" id="close"><path d="M21.8 0L24 2 12 14 0 2l2.2-2L12 9.7 21.8 0z" /><path d="M2.2 23.6l-2.2-2 12-12 12 12-2.2 2-9.8-9.7-9.8 9.7z" /></symbol><symbol viewBox="0 0 12 24" id="left"><path d="M4.023 11.68l8.828 8.828c.338.339.508.73.508 1.172 0 .443-.17.834-.508 1.172-.182.156-.385.28-.605.37a1.51 1.51 0 01-.567.138c-.156 0-.345-.045-.566-.137a2.22 2.22 0 01-.606-.371l-10-10C.17 12.514 0 12.122 0 11.68c0-.442.17-.833.507-1.172l10-10C10.845.17 11.237 0 11.68 0c.443 0 .833.17 1.172.508.338.339.508.73.508 1.172 0 .443-.17.834-.508 1.172L4.023 11.68z" /></symbol><symbol viewBox="0 0 20.02 24" id="location"><g data-name="Layer 2"><g class="cls-2" data-name="Layer 1"><path class="cls-3" d="M11.41 11.41a2 2 0 000-2.83A2 2 0 008 10a2 2 0 002 2 1.88 1.88 0 001.4-.59m1.42-4.24a3.95 3.95 0 010 5.65 4 4 0 01-5.65 0A3.81 3.81 0 016 10a3.84 3.84 0 011.18-2.83 4 4 0 015.65 0m-.76 13a22.33 22.33 0 002.65-2.73A19.61 19.61 0 0017 13.92 8.45 8.45 0 0018 10a7.77 7.77 0 00-.63-3.12 8.29 8.29 0 00-1.71-2.54 8 8 0 00-2.53-1.72 7.93 7.93 0 00-6.24 0 7.93 7.93 0 00-2.53 1.73 8.12 8.12 0 00-1.71 2.54A7.77 7.77 0 002 10a8.33 8.33 0 001 3.91 19.08 19.08 0 002.3 3.49 21.57 21.57 0 002.64 2.73c.91.77 1.6 1.32 2.07 1.67.47-.35 1.15-.9 2.06-1.67M13.9.8a9.79 9.79 0 013.16 2.13 10.22 10.22 0 012.16 3.19A9.64 9.64 0 0120 10a10.42 10.42 0 01-1.43 5.25 24.56 24.56 0 01-3.17 4.33 25 25 0 01-3.21 3l-1.59 1.2-.32.15A.79.79 0 0110 24a.75.75 0 01-.29-.06 2.3 2.3 0 01-.32-.15l-1.6-1.2a26.42 26.42 0 01-3.21-3 24.52 24.52 0 01-3.16-4.33A10.42 10.42 0 010 10a9.47 9.47 0 01.8-3.88A10.36 10.36 0 013 2.93 9.83 9.83 0 016.12.8a9.86 9.86 0 017.78 0" /></g></g></symbol><symbol viewBox="0 0 12 24" id="right"><path d="M12.852 10.508c.338.339.508.729.508 1.172 0 .443-.17.834-.508 1.172l-10 10c-.183.156-.358.28-.527.37-.17.093-.385.138-.645.138-.261 0-.475-.045-.644-.137a2.999 2.999 0 01-.528-.371C.168 22.514 0 22.122 0 21.68c0-.443.169-.833.508-1.172l8.828-8.828L.508 2.852C.168 2.514 0 2.122 0 1.68 0 1.237.169.847.508.508.846.17 1.237 0 1.68 0c.443 0 .833.17 1.172.508l10 10z" /></symbol></defs><use id="calendar-usage" xlink:href="#calendar" class="sprite-symbol-usage" /><use id="chevron-down-usage" xlink:href="#chevron-down" class="sprite-symbol-usage" /><use id="close-usage" xlink:href="#close" class="sprite-symbol-usage" /><use id="left-usage" xlink:href="#left" class="sprite-symbol-usage" /><use id="location-usage" xlink:href="#location" class="sprite-symbol-usage" /><use id="right-usage" xlink:href="#right" class="sprite-symbol-usage" /></svg>