<svg xmlns="http://www.w3.org/2000/svg" width="330" height="74" viewBox="0 0 330 74">
    <g fill="none" fill-rule="evenodd">
        <path fill="#008C6F" fill-rule="nonzero" d="M0 74L330 74 330 0 0 0z"/>
        <path fill="#FFF" d="M86 69.308L325.024 69.308 325.024 4.621 86 4.621z"/>
        <path fill="#008C6F" fill-rule="nonzero" d="M122.494 49.333v-3.96h-11.55v-5.25h10.38v-3.66h-10.38v-4.59h11.31v-3.96h-16.02v21.42h16.26zm9.27.39c.88 0 1.745-.085 2.595-.255.85-.17 1.605-.465 2.265-.885.66-.42 1.195-.975 1.605-1.665.41-.69.615-1.545.615-2.565 0-.72-.14-1.325-.42-1.815-.28-.49-.65-.9-1.11-1.23-.46-.33-.985-.595-1.575-.795-.59-.2-1.195-.37-1.815-.51-.6-.14-1.19-.27-1.77-.39-.58-.12-1.095-.255-1.545-.405-.45-.15-.815-.345-1.095-.585s-.42-.55-.42-.93c0-.32.08-.575.24-.765.16-.19.355-.335.585-.435.23-.1.485-.165.765-.195s.54-.045.78-.045c.76 0 1.42.145 1.98.435.56.29.87.845.93 1.665h4.05c-.08-.96-.325-1.755-.735-2.385-.41-.63-.925-1.135-1.545-1.515-.62-.38-1.325-.65-2.115-.81-.79-.16-1.605-.24-2.445-.24-.84 0-1.66.075-2.46.225-.8.15-1.52.41-2.16.78-.64.37-1.155.875-1.545 1.515-.39.64-.585 1.46-.585 2.46 0 .68.14 1.255.42 1.725.28.47.65.86 1.11 1.17.46.31.985.56 1.575.75.59.19 1.195.355 1.815.495 1.52.32 2.705.64 3.555.96.85.32 1.275.8 1.275 1.44 0 .38-.09.695-.27.945-.18.25-.405.45-.675.6-.27.15-.57.26-.9.33-.33.07-.645.105-.945.105-.42 0-.825-.05-1.215-.15-.39-.1-.735-.255-1.035-.465-.3-.21-.545-.48-.735-.81-.19-.33-.285-.725-.285-1.185h-4.05c.04 1.04.275 1.905.705 2.595.43.69.98 1.245 1.65 1.665.67.42 1.435.72 2.295.9.86.18 1.74.27 2.64.27zm13.83 5.04v-7.35h.06c.52.76 1.185 1.335 1.995 1.725.81.39 1.695.585 2.655.585 1.14 0 2.135-.22 2.985-.66.85-.44 1.56-1.03 2.13-1.77.57-.74.995-1.59 1.275-2.55.28-.96.42-1.96.42-3 0-1.1-.14-2.155-.42-3.165-.28-1.01-.71-1.895-1.29-2.655-.58-.76-1.31-1.37-2.19-1.83-.88-.46-1.93-.69-3.15-.69-.96 0-1.84.19-2.64.57-.8.38-1.46.99-1.98 1.83h-.06v-1.98h-4.05v20.94h4.26zm3.57-8.22c-.68 0-1.26-.14-1.74-.42-.48-.28-.865-.645-1.155-1.095-.29-.45-.5-.975-.63-1.575s-.195-1.21-.195-1.83c0-.64.06-1.26.18-1.86.12-.6.325-1.13.615-1.59.29-.46.67-.835 1.14-1.125.47-.29 1.055-.435 1.755-.435.68 0 1.255.145 1.725.435.47.29.855.67 1.155 1.14.3.47.515 1.005.645 1.605.13.6.195 1.21.195 1.83 0 .62-.06 1.23-.18 1.83-.12.6-.325 1.125-.615 1.575-.29.45-.67.815-1.14 1.095-.47.28-1.055.42-1.755.42zm15.12 3.18c.96 0 1.9-.14 2.82-.42.92-.28 1.72-.77 2.4-1.47.02.26.055.515.105.765.05.25.115.495.195.735h4.32c-.2-.32-.34-.8-.42-1.44-.08-.64-.12-1.31-.12-2.01v-8.07c0-.94-.21-1.695-.63-2.265-.42-.57-.96-1.015-1.62-1.335-.66-.32-1.39-.535-2.19-.645-.8-.11-1.59-.165-2.37-.165-.86 0-1.715.085-2.565.255-.85.17-1.615.455-2.295.855-.68.4-1.24.93-1.68 1.59-.44.66-.69 1.49-.75 2.49h4.26c.08-.84.36-1.44.84-1.8.48-.36 1.14-.54 1.98-.54.38 0 .735.025 1.065.075.33.05.62.15.87.3s.45.36.6.63c.15.27.225.635.225 1.095.02.44-.11.775-.39 1.005-.28.23-.66.405-1.14.525-.48.12-1.03.21-1.65.27-.62.06-1.25.14-1.89.24-.64.1-1.275.235-1.905.405-.63.17-1.19.425-1.68.765s-.89.795-1.2 1.365c-.31.57-.465 1.295-.465 2.175 0 .8.135 1.49.405 2.07.27.58.645 1.06 1.125 1.44.48.38 1.04.66 1.68.84.64.18 1.33.27 2.07.27zm1.59-2.82c-.34 0-.67-.03-.99-.09-.32-.06-.6-.165-.84-.315s-.43-.355-.57-.615c-.14-.26-.21-.58-.21-.96 0-.4.07-.73.21-.99.14-.26.325-.475.555-.645.23-.17.5-.305.81-.405.31-.1.625-.18.945-.24.34-.06.68-.11 1.02-.15.34-.04.665-.09.975-.15.31-.06.6-.135.87-.225s.495-.215.675-.375v1.59c0 .24-.025.56-.075.96-.05.4-.185.795-.405 1.185-.22.39-.56.725-1.02 1.005-.46.28-1.11.42-1.95.42zm18.36 2.82c2.06 0 3.75-.54 5.07-1.62 1.32-1.08 2.12-2.65 2.4-4.71h-4.11c-.14.96-.485 1.725-1.035 2.295-.55.57-1.335.855-2.355.855-.66 0-1.22-.15-1.68-.45-.46-.3-.825-.685-1.095-1.155s-.465-.995-.585-1.575c-.12-.58-.18-1.15-.18-1.71 0-.58.06-1.165.18-1.755.12-.59.325-1.13.615-1.62.29-.49.665-.89 1.125-1.2.46-.31 1.03-.465 1.71-.465 1.82 0 2.87.89 3.15 2.67h4.17c-.06-1-.3-1.865-.72-2.595-.42-.73-.965-1.34-1.635-1.83s-1.43-.855-2.28-1.095c-.85-.24-1.735-.36-2.655-.36-1.26 0-2.38.21-3.36.63-.98.42-1.81 1.005-2.49 1.755-.68.75-1.195 1.64-1.545 2.67-.35 1.03-.525 2.145-.525 3.345 0 1.16.19 2.225.57 3.195.38.97.91 1.805 1.59 2.505s1.505 1.245 2.475 1.635c.97.39 2.035.585 3.195.585zm17.04 0c1.76 0 3.26-.4 4.5-1.2 1.24-.8 2.16-2.13 2.76-3.99h-3.75c-.14.48-.52.935-1.14 1.365-.62.43-1.36.645-2.22.645-1.2 0-2.12-.31-2.76-.93-.64-.62-.99-1.62-1.05-3h11.19c.08-1.2-.02-2.35-.3-3.45-.28-1.1-.735-2.08-1.365-2.94-.63-.86-1.435-1.545-2.415-2.055-.98-.51-2.13-.765-3.45-.765-1.18 0-2.255.21-3.225.63-.97.42-1.805.995-2.505 1.725-.7.73-1.24 1.595-1.62 2.595-.38 1-.57 2.08-.57 3.24 0 1.2.185 2.3.555 3.3.37 1 .895 1.86 1.575 2.58.68.72 1.51 1.275 2.49 1.665.98.39 2.08.585 3.3.585zm3.27-9.81h-6.93c.02-.3.085-.64.195-1.02s.3-.74.57-1.08c.27-.34.63-.625 1.08-.855.45-.23 1.015-.345 1.695-.345 1.04 0 1.815.28 2.325.84.51.56.865 1.38 1.065 2.46zm19.38 14.85v-7.35h.06c.52.76 1.185 1.335 1.995 1.725.81.39 1.695.585 2.655.585 1.14 0 2.135-.22 2.985-.66.85-.44 1.56-1.03 2.13-1.77.57-.74.995-1.59 1.275-2.55.28-.96.42-1.96.42-3 0-1.1-.14-2.155-.42-3.165-.28-1.01-.71-1.895-1.29-2.655-.58-.76-1.31-1.37-2.19-1.83-.88-.46-1.93-.69-3.15-.69-.96 0-1.84.19-2.64.57-.8.38-1.46.99-1.98 1.83h-.06v-1.98h-4.05v20.94h4.26zm3.57-8.22c-.68 0-1.26-.14-1.74-.42-.48-.28-.865-.645-1.155-1.095-.29-.45-.5-.975-.63-1.575s-.195-1.21-.195-1.83c0-.64.06-1.26.18-1.86.12-.6.325-1.13.615-1.59.29-.46.67-.835 1.14-1.125.47-.29 1.055-.435 1.755-.435.68 0 1.255.145 1.725.435.47.29.855.67 1.155 1.14.3.47.515 1.005.645 1.605.13.6.195 1.21.195 1.83 0 .62-.06 1.23-.18 1.83-.12.6-.325 1.125-.615 1.575-.29.45-.67.815-1.14 1.095-.47.28-1.055.42-1.755.42zm16.17 3.18c.9 0 1.78-.2 2.64-.6.86-.4 1.56-1.05 2.1-1.95h.09v2.16h4.05v-15.51h-4.26v8.13c0 1.58-.26 2.715-.78 3.405s-1.36 1.035-2.52 1.035c-1.02 0-1.73-.315-2.13-.945-.4-.63-.6-1.585-.6-2.865v-8.76h-4.26v9.54c0 .96.085 1.835.255 2.625.17.79.465 1.46.885 2.01.42.55.995.975 1.725 1.275.73.3 1.665.45 2.805.45zm21.33 0c.78 0 1.55-.16 2.31-.48.76-.32 1.445-.81 2.055-1.47.61-.66 1.105-1.505 1.485-2.535.38-1.03.57-2.255.57-3.675s-.19-2.645-.57-3.675c-.38-1.03-.875-1.875-1.485-2.535-.61-.66-1.295-1.15-2.055-1.47-.76-.32-1.53-.48-2.31-.48-.96 0-1.885.185-2.775.555-.89.37-1.595.955-2.115 1.755h-.06v-7.8h-4.26v21.42h4.05v-1.98h.06c.46.86 1.14 1.47 2.04 1.83.9.36 1.92.54 3.06.54zm-1.47-3.18c-.62 0-1.16-.135-1.62-.405-.46-.27-.84-.635-1.14-1.095-.3-.46-.52-.99-.66-1.59-.14-.6-.21-1.22-.21-1.86 0-.66.07-1.29.21-1.89.14-.6.36-1.13.66-1.59.3-.46.68-.825 1.14-1.095.46-.27 1-.405 1.62-.405.64 0 1.185.135 1.635.405.45.27.825.635 1.125 1.095.3.46.52.99.66 1.59.14.6.21 1.23.21 1.89 0 .64-.07 1.26-.21 1.86-.14.6-.36 1.13-.66 1.59-.3.46-.675.825-1.125 1.095-.45.27-.995.405-1.635.405zm14.97 2.79v-21.42h-4.26v21.42h4.26zm7.74-17.91v-3.51h-4.26v3.51h4.26zm0 17.91v-15.51h-4.26v15.51h4.26zm10.71.39c2.06 0 3.75-.54 5.07-1.62 1.32-1.08 2.12-2.65 2.4-4.71h-4.11c-.14.96-.485 1.725-1.035 2.295-.55.57-1.335.855-2.355.855-.66 0-1.22-.15-1.68-.45-.46-.3-.825-.685-1.095-1.155s-.465-.995-.585-1.575c-.12-.58-.18-1.15-.18-1.71 0-.58.06-1.165.18-1.755.12-.59.325-1.13.615-1.62.29-.49.665-.89 1.125-1.2.46-.31 1.03-.465 1.71-.465 1.82 0 2.87.89 3.15 2.67h4.17c-.06-1-.3-1.865-.72-2.595-.42-.73-.965-1.34-1.635-1.83s-1.43-.855-2.28-1.095c-.85-.24-1.735-.36-2.655-.36-1.26 0-2.38.21-3.36.63-.98.42-1.81 1.005-2.49 1.755-.68.75-1.195 1.64-1.545 2.67-.35 1.03-.525 2.145-.525 3.345 0 1.16.19 2.225.57 3.195.38.97.91 1.805 1.59 2.505s1.505 1.245 2.475 1.635c.97.39 2.035.585 3.195.585z"/>
        <g fill="#FFF" fill-rule="nonzero">
            <path d="M25.995 26c-.546 0-1.064-.18-1.494-.522-.148-.117-.283-.253-.401-.404-3.025-3.853-8.1-10.927-8.1-15.026C16 4.51 20.483.002 25.995 0 31.513 0 36 4.507 36 10.046c0 4.125-5.077 11.187-8.104 15.033-.4.508-.972.831-1.616.906-.094.01-.188.015-.285.015zm0-23.57c-4.178.002-7.577 3.418-7.577 7.618 0 2.85 3.917 8.856 7.582 13.525 3.665-4.657 7.582-10.656 7.582-13.522 0-4.203-3.402-7.622-7.582-7.622l-.005-.607v.607z" transform="translate(15 8)"/>
            <path d="M26.457 14.042c-1.188 0-2.307-.468-3.15-1.322-.84-.853-1.307-1.989-1.307-3.196-.002-2.491 1.997-4.522 4.455-4.524 2.455 0 4.456 2.025 4.461 4.516 0 1.208-.461 2.346-1.303 3.2-.842.853-1.96 1.326-3.151 1.326h-.005zm-.002-6.616c-1.139 0-2.064.94-2.064 2.098 0 .56.215 1.086.607 1.482.39.395.909.613 1.459.613.555 0 1.073-.218 1.463-.613.39-.396.605-.922.605-1.482-.002-1.16-.932-2.098-2.07-2.098zM47.97 40c-.538 0-1.047-.18-1.47-.517-.153-.12-.29-.26-.409-.417-3.254-4.203-7.135-9.952-7.135-13.45 0-5.044 4.043-9.148 9.017-9.15 2.415 0 4.68.95 6.382 2.677C56.06 20.87 56.998 23.17 57 25.612c0 3.5-3.883 9.248-7.142 13.457-.392.509-.959.832-1.592.91-.1.014-.199.021-.295.021zm0-21.11c-3.653.003-6.625 3.018-6.625 6.727 0 2.093 2.54 6.675 6.628 11.957 4.09-5.282 6.633-9.864 6.633-11.955 0-1.797-.691-3.488-1.944-4.756-1.25-1.274-2.915-1.972-4.684-1.972l-.005-.607v.607h-.003z" transform="translate(15 8)"/>
            <path d="M47.807 30.315c-2.31 0-4.19-1.866-4.19-4.157 0-2.292 1.878-4.156 4.188-4.158 1.12 0 2.174.43 2.965 1.216.79.785 1.228 1.83 1.23 2.94-.002 2.293-1.883 4.16-4.193 4.16zm0-5.908c-.973 0-1.764.785-1.764 1.75 0 .966.791 1.75 1.764 1.75s1.764-.784 1.764-1.75c0-.469-.184-.907-.517-1.24-.332-.33-.776-.51-1.247-.51v-.601.601zM11.405 58c-.67 0-1.213-.54-1.213-1.204 0-2.443-2.363-5.958-4.652-9.357C3.248 44.03.875 40.506.29 37.319c-.655-2.712-.192-5.557 1.308-7.979 1.5-2.42 3.86-4.117 6.645-4.776.813-.193 1.65-.291 2.49-.291.223 0 .449.007.672.021.228-.014.456-.021.684-.021 5.59 0 10.288 4.33 10.69 9.863.08 1.083-.01 2.169-.261 3.226-.457 2.652-2.623 5.924-4.921 9.39-2.448 3.696-4.979 7.514-4.979 10.044 0 .665-.543 1.204-1.213 1.204zm-.672-31.32c-.648 0-1.293.075-1.924.226-2.155.51-3.982 1.823-5.142 3.696-1.16 1.873-1.516 4.082-1.002 6.22.51 2.76 2.74 6.074 4.894 9.28 1.475 2.194 2.885 4.288 3.841 6.27 1.043-2.225 2.628-4.615 4.169-6.94 2.064-3.119 4.197-6.337 4.568-8.53.003-.015.012-.068.017-.082.2-.823.27-1.668.207-2.511-.16-2.19-1.17-4.189-2.844-5.626-1.507-1.293-3.426-2.003-5.408-2.003-.204 0-.408.007-.612.022l-.09.002-.075-.002c-.209-.015-.405-.022-.6-.022z" transform="translate(15 8)"/>
            <path d="M11.711 40.607c-3.148 0-5.709-2.54-5.711-5.662-.002-3.125 2.558-5.668 5.709-5.67 1.528 0 2.962.59 4.04 1.657 1.079 1.07 1.673 2.49 1.676 4.003 0 1.514-.593 2.936-1.67 4.008-1.079 1.07-2.513 1.662-4.04 1.662h-.004v.002zm.002-8.943c-1.824.003-3.306 1.473-3.304 3.28 0 1.808 1.483 3.276 3.304 3.276.884 0 1.714-.341 2.337-.962.624-.62.968-1.442.968-2.318 0-.879-.344-1.7-.968-2.318-.625-.619-1.456-.958-2.337-.958v-.596.596zm28.462 6.53c-.236 0-.467-.07-.667-.199l-11.812-7.808c-.55-.366-.703-1.108-.334-1.655.224-.334.599-.532 1-.532.24 0 .47.07.668.2l11.81 7.807c.266.177.45.446.512.759s0 .63-.178.895c-.22.334-.595.533-1 .533zM17.86 55c-.467 0-.893-.27-1.09-.69-.135-.289-.15-.613-.041-.912.11-.298.33-.54.62-.673L41.29 41.64c.161-.074.332-.112.508-.112.464 0 .893.27 1.09.687.135.289.15.614.041.915-.11.298-.33.539-.623.673l-23.94 11.084c-.156.074-.327.112-.505.112z" transform="translate(15 8)"/>
        </g>
    </g>
</svg>
