<svg xmlns="http://www.w3.org/2000/svg" viewBox="0 0 20 24"><path fill="#000" d="M19.168 21.322c.194-.194.291-.46.291-.798v-9.73H2.18v9.73c0 .338.097.604.292.798.194.194.451.291.772.291h15.153c.32 0 .577-.097.772-.291zM3.243 4.308c-.321 0-.578.1-.772.303-.195.203-.292.465-.292.786V8.64h17.28V5.397c0-.32-.097-.583-.29-.786-.196-.202-.453-.303-.773-.303h-2.18v1.089c0 .32-.097.583-.291.785-.195.203-.452.305-.773.305-.338 0-.604-.102-.798-.305-.195-.202-.291-.464-.291-.785v-1.09H7.576v1.09c0 .32-.097.583-.291.785-.195.203-.46.305-.799.305-.32 0-.578-.102-.772-.305-.195-.202-.291-.464-.291-.785v-1.09h-2.18zm15.153-2.154c.912 0 1.68.313 2.305.938.624.624.938 1.393.938 2.305v15.127c0 .929-.314 1.702-.938 2.318-.625.616-1.393.925-2.305.925H3.243c-.912 0-1.681-.309-2.305-.925C.313 22.226 0 21.452 0 20.524V5.397c0-.912.313-1.68.938-2.305.624-.625 1.393-.938 2.305-.938h2.18v-1.09c0-.32.096-.578.29-.773.195-.194.452-.29.773-.29.338 0 .604.096.799.29.194.195.291.452.291.773v1.09h6.487v-1.09c0-.32.096-.578.29-.773.195-.194.46-.29.8-.29.32 0 .577.096.772.29.194.195.291.452.291.773v1.09h2.18z" mask="url(#c)"/></svg>
