<svg xmlns="http://www.w3.org/2000/svg" xmlns:xlink="http://www.w3.org/1999/xlink" viewBox="0 0 20.02 24"><defs><mask id="mask" x="0" y="0" maskUnits="userSpaceOnUse"><g id="jd1hy0ojrc"><path id="ngt6hmrrmb" class="cls-1" d="M0,0H20V24H0Z"/></g></mask></defs><title>Asset 1</title><g id="Layer_2" data-name="Layer 2"><g id="Layer_1-2" data-name="Layer 1"><g class="cls-2"><path class="cls-3" d="M11.41,11.41a2,2,0,0,0,0-2.83A2,2,0,0,0,8,10a2,2,0,0,0,2,2,1.88,1.88,0,0,0,1.4-.59m1.42-4.24a3.95,3.95,0,0,1,0,5.65,4,4,0,0,1-5.65,0A3.81,3.81,0,0,1,6,10,3.84,3.84,0,0,1,7.18,7.17a4,4,0,0,1,5.65,0m-.76,13a22.33,22.33,0,0,0,2.65-2.73A19.61,19.61,0,0,0,17,13.92,8.45,8.45,0,0,0,18,10a7.77,7.77,0,0,0-.63-3.12,8.29,8.29,0,0,0-1.71-2.54,8,8,0,0,0-2.53-1.72,7.93,7.93,0,0,0-6.24,0A7.93,7.93,0,0,0,4.36,4.35,8.12,8.12,0,0,0,2.65,6.89,7.77,7.77,0,0,0,2,10a8.33,8.33,0,0,0,1,3.91A19.08,19.08,0,0,0,5.3,17.4a21.57,21.57,0,0,0,2.64,2.73c.91.77,1.6,1.32,2.07,1.67.47-.35,1.15-.9,2.06-1.67M13.9.8a9.79,9.79,0,0,1,3.16,2.13,10.22,10.22,0,0,1,2.16,3.19A9.64,9.64,0,0,1,20,10a10.42,10.42,0,0,1-1.43,5.25,24.56,24.56,0,0,1-3.17,4.33,25,25,0,0,1-3.21,3l-1.59,1.2-.32.15A.79.79,0,0,1,10,24a.75.75,0,0,1-.29-.06,2.3,2.3,0,0,1-.32-.15l-1.6-1.2a26.42,26.42,0,0,1-3.21-3,24.52,24.52,0,0,1-3.16-4.33A10.42,10.42,0,0,1,0,10,9.47,9.47,0,0,1,.8,6.12,10.36,10.36,0,0,1,3,2.93,9.83,9.83,0,0,1,6.12.8,9.86,9.86,0,0,1,13.9.8"/></g></g></g></svg>