<svg xmlns="http://www.w3.org/2000/svg" viewBox="0 0 16 24"><path fill="#000" d="M11.414 11.414c.39-.39.586-.86.586-1.406 0-.563-.196-1.039-.586-1.43a1.92 1.92 0 00-1.406-.586c-.548 0-1.016.196-1.406.586a1.944 1.944 0 00-.586 1.43c0 .547.195 1.016.586 1.406.39.39.858.586 1.406.586.546 0 1.015-.195 1.406-.586m1.418-4.242c.789.781 1.184 1.727 1.184 2.836 0 1.093-.395 2.031-1.184 2.812-.79.782-1.73 1.172-2.824 1.172-1.094 0-2.036-.39-2.825-1.172C6.394 12.04 6 11.101 6 10.008c0-1.11.394-2.055 1.183-2.836C7.973 6.391 8.913 6 10.008 6c1.093 0 2.035.39 2.824 1.172m-.762 12.96a22.683 22.683 0 002.649-2.73 19.49 19.49 0 002.297-3.48c.656-1.266.984-2.57.984-3.914 0-1.11-.211-2.148-.633-3.117a8.267 8.267 0 00-1.711-2.543 8.035 8.035 0 00-2.53-1.723 7.837 7.837 0 00-3.118-.633c-1.094 0-2.133.21-3.117.633a8.01 8.01 0 00-2.532 1.723 8.247 8.247 0 00-1.71 2.543 7.704 7.704 0 00-.633 3.117c0 1.344.328 2.648.984 3.914a19.437 19.437 0 002.297 3.48c.875 1.055 1.757 1.966 2.648 2.73.906.767 1.594 1.321 2.063 1.665.469-.344 1.156-.898 2.062-1.664M13.9.797a10.002 10.002 0 013.163 2.132c.906.907 1.625 1.97 2.157 3.188a9.653 9.653 0 01.797 3.89c0 1.844-.477 3.595-1.43 5.25-.954 1.642-2.008 3.087-3.164 4.337-1.157 1.25-2.227 2.25-3.211 3l-1.594 1.195c-.11.062-.215.113-.316.152a.825.825 0 01-.293.06.816.816 0 01-.293-.06 2.38 2.38 0 01-.316-.152l-1.595-1.195c-.984-.75-2.054-1.75-3.21-3-1.157-1.25-2.212-2.695-3.165-4.336C.477 13.602 0 11.85 0 10.008c0-1.375.265-2.672.797-3.89.53-1.22 1.25-2.282 2.156-3.189A9.995 9.995 0 016.117.797C7.336.266 8.632 0 10.007 0S12.68.266 13.9.797" mask="url(#c)"/></svg>
