<svg xmlns="http://www.w3.org/2000/svg" viewBox="0 0 24 24"><path d="M12 24C5.383 24 0 18.617 0 12S5.383 0 12 0s12 5.383 12 12-5.383 12-12 12zm0-23C5.935 1 1 5.935 1 12s4.935 11 11 11 11-4.935 11-11S18.065 1 12 1z"/><path d="M12 13.5c-2.619 0-4.75-2.131-4.75-4.75S9.381 4 12 4s4.75 2.131 4.75 4.75S14.619 13.5 12 13.5zM12 5C9.932 5 8.25 6.682 8.25 8.75S9.932 12.5 12 12.5s3.75-1.682 3.75-3.75S14.068 5 12 5zM5.683 19c-.075 0-.147-.016-.214-.049-.249-.118-.355-.417-.237-.666.739-1.562 2.005-2.829 3.567-3.567 1.007-.476 2.081-.718 3.19-.718 2.887 0 5.549 1.682 6.781 4.286.117.25.011.548-.238.666-.069.032-.141.048-.215.048-.193 0-.37-.112-.452-.286C16.798 16.458 14.491 15 11.989 15c-.96 0-1.89.209-2.763.623-1.353.64-2.451 1.738-3.091 3.091-.082.174-.26.286-.452.286z"/></svg>
